<?xml version="1.0" encoding="UTF-8" standalone="no"?>
<!-- Created with Inkscape (http://www.inkscape.org/) -->

<svg
   width="543"
   height="132"
   viewBox="0 0 143.66875 34.925"
   version="1.1"
   id="svg1"
   inkscape:version="1.3.2 (091e20e, 2023-11-25, custom)"
   sodipodi:docname="meblo-projekt-tekst.svg"
   xmlns:inkscape="http://www.inkscape.org/namespaces/inkscape"
   xmlns:sodipodi="http://sodipodi.sourceforge.net/DTD/sodipodi-0.dtd"
   xmlns="http://www.w3.org/2000/svg"
   xmlns:svg="http://www.w3.org/2000/svg">
  <sodipodi:namedview
     id="namedview1"
     pagecolor="#ffffff"
     bordercolor="#000000"
     borderopacity="0.25"
     inkscape:showpageshadow="2"
     inkscape:pageopacity="0.0"
     inkscape:pagecheckerboard="0"
     inkscape:deskcolor="#d1d1d1"
     inkscape:document-units="mm"
     inkscape:zoom="0.71268238"
     inkscape:cx="395.68819"
     inkscape:cy="336.75591"
     inkscape:window-width="2560"
     inkscape:window-height="1009"
     inkscape:window-x="-8"
     inkscape:window-y="-8"
     inkscape:window-maximized="1"
     inkscape:current-layer="layer1" />
  <defs
     id="defs1" />
  <g
     inkscape:label="Warstwa 1"
     inkscape:groupmode="layer"
     id="layer1">
    <path
       d="M 6.378428,7.6708 H 5.023761 V 5.825067 c 0,-0.552979 -0.163777,-0.959379 -0.491066,-1.2192 C 4.216518,4.34631 3.793184,4.2164 3.262695,4.2164 c -0.350044,0 -0.688711,0.05662 -1.016,0.169333 C 1.919405,4.49871 1.642651,4.628621 1.416962,4.7752 V 7.6708 H 0.062295 V 4.842933 c 0,-0.225689 0.04524,-0.417512 0.135467,-0.575733 C 0.299362,4.109244 0.468695,3.956844 0.705762,3.81 1.010562,3.618177 1.394472,3.4544 1.857228,3.318933 2.331362,3.172354 2.805495,3.0988 3.279628,3.0988 c 0.575734,0 1.083733,0.09049 1.524,0.270933 0.440267,0.169334 0.767556,0.4064 0.982133,0.7112 0.06773,0.06773 0.12409,0.129911 0.169334,0.186267 0.04524,0.05662 0.09022,0.12991 0.135466,0.220133 0.07911,0.135467 0.146844,0.310621 0.2032,0.524934 0.05636,0.214577 0.08467,0.451643 0.08467,0.7112 z m 4.961467,0 H 9.985228 V 5.825067 c 0,-0.552979 -0.157956,-0.959379 -0.474133,-1.2192 C 9.194918,4.34631 8.771584,4.2164 8.241095,4.2164 7.846072,4.2164 7.462161,4.30107 7.089628,4.4704 6.728472,4.628621 6.400918,4.859867 6.107495,5.164667 L 5.565628,4.182533 C 5.859051,3.88911 6.242961,3.63511 6.717095,3.420533 7.191228,3.206221 7.733095,3.0988 8.342695,3.0988 c 0.6096,0 1.134533,0.09604 1.5748,0.287867 0.451644,0.192087 0.801423,0.48551 1.049866,0.880533 0.248444,0.395288 0.372534,0.89191 0.372534,1.490133 z M 1.416962,6.773333 v 4.334934 c -0.05636,0.02275 -0.141023,0.04524 -0.254,0.06773 -0.112978,0.03387 -0.237067,0.0508 -0.372534,0.0508 -0.237066,0 -0.417777,-0.04498 -0.541866,-0.135467 -0.12409,-0.1016 -0.186267,-0.259556 -0.186267,-0.474133 V 6.773333 Z m 4.961466,0 v 4.334934 c -0.05636,0.02275 -0.146844,0.04524 -0.270933,0.06773 -0.112977,0.03387 -0.231511,0.0508 -0.3556,0.0508 -0.248444,0 -0.434711,-0.04498 -0.5588,-0.135467 C 5.080118,10.98973 5.023761,10.831774 5.023761,10.617197 V 6.773333 Z m 4.961467,0 v 4.334934 c -0.05636,0.02275 -0.146844,0.04524 -0.270934,0.06773 -0.112977,0.03387 -0.23151,0.0508 -0.3556,0.0508 -0.248443,0 -0.43471,-0.04498 -0.5588,-0.135467 -0.112977,-0.1016 -0.169333,-0.259556 -0.169333,-0.474133 V 6.773333 Z m 6.356879,0.254 5.113866,-0.694266 c -0.04524,-0.620713 -0.259556,-1.128713 -0.643466,-1.524 -0.383911,-0.4064 -0.9144,-0.6096 -1.591734,-0.6096 -0.699822,0 -1.281377,0.254 -1.744133,0.762 C 18.379663,5.458354 18.153974,6.17511 18.153974,7.112 v 0.372533 c 0.07911,0.903288 0.372533,1.591734 0.880533,2.065867 0.519377,0.463021 1.224756,0.694267 2.116667,0.694267 0.474133,0 0.903023,-0.07885 1.286933,-0.237067 0.383911,-0.157956 0.688711,-0.32729 0.9144,-0.508 0.12409,0.07911 0.220133,0.175154 0.287867,0.287867 0.07911,0.1016 0.118533,0.220133 0.118533,0.3556 0,0.214577 -0.124089,0.417777 -0.372533,0.6096 -0.237067,0.18071 -0.5588,0.327554 -0.9652,0.440266 -0.395023,0.112977 -0.841111,0.169334 -1.337734,0.169334 -0.869156,0 -1.6256,-0.157957 -2.269066,-0.474134 -0.63209,-0.315912 -1.123156,-0.784489 -1.4732,-1.405466 -0.338667,-0.63209 -0.508,-1.399646 -0.508,-2.302934 0,-0.643466 0.09022,-1.213379 0.270933,-1.710266 0.191823,-0.508 0.451644,-0.93689 0.778933,-1.286934 0.338667,-0.349779 0.739511,-0.615156 1.202267,-0.795866 0.462756,-0.191823 0.9652,-0.287867 1.507067,-0.287867 0.68871,0 1.292489,0.146844 1.811866,0.440267 0.53049,0.293687 0.942711,0.705643 1.236134,1.236133 0.3048,0.519377 0.4572,1.1176 0.4572,1.794933 0,0.248444 -0.05636,0.429155 -0.169334,0.541867 -0.112977,0.1016 -0.270933,0.163777 -0.474133,0.186267 l -5.6896,0.795866 z M 32.929101,3.0988 c 0.700087,0 1.326621,0.1524 1.8796,0.4572 0.564621,0.293688 1.004887,0.745067 1.321064,1.354667 0.32729,0.6096 0.490802,1.382977 0.490802,2.319866 0,0.948267 -0.169333,1.7272 -0.508,2.3368 -0.327289,0.6096 -0.784489,1.061244 -1.3716,1.354667 -0.586845,0.293687 -1.27,0.440267 -2.048933,0.440267 -0.552979,0 -1.055423,-0.06773 -1.507067,-0.2032 C 30.744701,11.0236 30.383545,10.877021 30.101234,10.7188 29.864167,10.560844 29.700655,10.414 29.610167,10.278533 29.519947,10.143067 29.474701,9.9568 29.474701,9.719733 v -5.6388 h 1.354666 v 5.6388 c 0.169334,0.124355 0.417777,0.242888 0.745067,0.3556 0.327554,0.112977 0.700088,0.169334 1.1176,0.169334 0.767821,0 1.382977,-0.242623 1.845733,-0.728134 0.474134,-0.485245 0.7112,-1.247245 0.7112,-2.286 0,-1.049866 -0.237066,-1.811866 -0.7112,-2.286 C 34.063634,4.459288 33.459855,4.2164 32.725901,4.2164 c -0.451379,0 -0.852223,0.09049 -1.202267,0.270933 C 31.173855,4.656667 30.885988,4.85431 30.660034,5.08 l -0.254,-1.100667 C 30.654478,3.78751 30.987588,3.595688 31.405101,3.4036 c 0.417777,-0.2032 0.925777,-0.3048 1.524,-0.3048 z m -3.4544,1.253067 V 0.169333 c 0.05662,-0.02249 0.141287,-0.04498 0.254,-0.06773 0.124354,-0.03387 0.254,-0.0508 0.389466,-0.0508 0.237067,0 0.412221,0.0508 0.524934,0.1524 0.124354,0.09049 0.186266,0.242888 0.186266,0.4572 V 4.35187 Z m 14.136423,2.523066 v 4.233334 c -0.05636,0.02275 -0.141023,0.04524 -0.254,0.06773 -0.112713,0.03387 -0.237067,0.0508 -0.372534,0.0508 -0.237066,0 -0.417512,-0.04498 -0.541866,-0.135467 -0.12409,-0.1016 -0.186267,-0.259556 -0.186267,-0.474133 V 6.671733 Z m -1.354667,0.4572 v -7.1628 c 0.05662,-0.02249 0.141287,-0.04498 0.254,-0.06773 0.124354,-0.03387 0.248444,-0.0508 0.372533,-0.0508 0.248444,0 0.429154,0.0508 0.541867,0.1524 0.124354,0.09049 0.186267,0.242888 0.186267,0.4572 v 6.858 z m 14.682787,-0.1016 c 0,0.835555 -0.157956,1.563688 -0.474133,2.1844 -0.315913,0.620977 -0.762,1.100667 -1.337733,1.439334 -0.575734,0.338666 -1.253067,0.508 -2.032,0.508 -0.778934,0 -1.461823,-0.169334 -2.048934,-0.508 C 50.470711,10.5156 50.024888,10.03591 49.708711,9.414933 49.392798,8.794221 49.234578,8.066088 49.234578,7.230533 c 0,-0.846666 0.15822,-1.5748 0.474133,-2.1844 0.327554,-0.620712 0.778933,-1.100666 1.354667,-1.439333 0.58711,-0.338667 1.264443,-0.508 2.032,-0.508 0.76782,0 1.439333,0.169333 2.015066,0.508 0.575734,0.338667 1.021821,0.818621 1.337734,1.439333 0.327554,0.6096 0.491066,1.337734 0.491066,2.1844 z M 53.095378,4.2164 c -0.75618,0 -1.360223,0.270933 -1.811867,0.8128 -0.440267,0.530754 -0.6604,1.264444 -0.6604,2.201333 0,0.948267 0.214577,1.687777 0.643467,2.218267 0.440266,0.530754 1.049866,0.795867 1.8288,0.795867 0.76782,0 1.366043,-0.265113 1.794933,-0.795867 0.440267,-0.541867 0.6604,-1.281112 0.6604,-2.218267 0,-0.936889 -0.220133,-1.670579 -0.6604,-2.201333 -0.42889,-0.541867 -1.027113,-0.8128 -1.794933,-0.8128 z m 9.171517,3.064933 c -0.0339,-0.07885 -0.0622,-0.157956 -0.0847,-0.237066 -0.0225,-0.09022 -0.0339,-0.191823 -0.0339,-0.3048 0,-0.191823 0.0508,-0.332846 0.1524,-0.423334 0.11297,-0.1016 0.25955,-0.1524 0.44026,-0.1524 h 4.04707 c 0.0225,0.06773 0.0452,0.146844 0.0677,0.237067 0.0339,0.09049 0.0508,0.186267 0.0508,0.287867 0,0.18071 -0.0508,0.327554 -0.1524,0.440266 -0.1016,0.1016 -0.24844,0.1524 -0.44026,0.1524 z m 14.04911,4.080934 c -0.48551,0 -0.94271,-0.07329 -1.3716,-0.220134 -0.41778,-0.135466 -0.72258,-0.287866 -0.9144,-0.4572 V 9.431867 c 0.22569,0.214577 0.508,0.4064 0.84667,0.575733 0.35004,0.158221 0.76755,0.237067 1.25306,0.237067 0.79031,0 1.4224,-0.237067 1.89654,-0.7112 0.48551,-0.485246 0.72813,-1.258623 0.72813,-2.319867 0,-0.745067 -0.12409,-1.331912 -0.37253,-1.761067 -0.23707,-0.440266 -0.5588,-0.756179 -0.9652,-0.948266 -0.39503,-0.191823 -0.82418,-0.287867 -1.28694,-0.287867 -0.4064,0 -0.75062,0.0508 -1.03293,0.1524 -0.28231,0.1016 -0.53631,0.214577 -0.762,0.338667 v 5.621866 h -1.35467 v -5.588 c 0,-0.225689 0.0394,-0.4064 0.11854,-0.541866 0.0791,-0.135467 0.24262,-0.27649 0.49106,-0.423334 0.3048,-0.169333 0.66596,-0.321733 1.08374,-0.4572 0.42889,-0.146579 0.9144,-0.220133 1.45626,-0.220133 0.74507,0 1.41685,0.146844 2.01507,0.440267 0.6096,0.28231 1.08929,0.728133 1.43933,1.337733 0.36116,0.598488 0.54187,1.377421 0.54187,2.3368 0,0.925777 -0.16378,1.699154 -0.49107,2.319867 -0.31617,0.6096 -0.762,1.0668 -1.33773,1.3716 -0.57573,0.3048 -1.23613,0.4572 -1.9812,0.4572 z m -3.33587,-1.524 1.35467,0.03387 v 4.318 c -0.0564,0.02275 -0.14102,0.04524 -0.254,0.06773 -0.11298,0.03387 -0.23707,0.0508 -0.37253,0.0508 -0.23707,0 -0.41778,-0.0508 -0.54187,-0.1524 -0.12409,-0.1016 -0.18627,-0.259557 -0.18627,-0.474134 z m 13.98508,-2.3876 h -1.35466 V 4.8768 c 0,-0.259556 0.0452,-0.462756 0.13546,-0.6096 0.1016,-0.157956 0.26538,-0.310356 0.49107,-0.4572 0.29369,-0.191823 0.69427,-0.3556 1.20227,-0.491067 0.508,-0.146579 1.07262,-0.220133 1.69333,-0.220133 0.90329,0 1.35467,0.225954 1.35467,0.677333 0,0.112977 -0.0169,0.220134 -0.0508,0.321734 -0.0339,0.09049 -0.0789,0.169333 -0.13547,0.237066 -0.11271,-0.02249 -0.25956,-0.04498 -0.44027,-0.06773 -0.18044,-0.02249 -0.36115,-0.03387 -0.54186,-0.03387 -0.51912,0 -0.97632,0.05662 -1.3716,0.169334 -0.39503,0.1016 -0.72232,0.225954 -0.98214,0.372533 z m 0,-0.575734 v 4.233334 c -0.0564,0.02275 -0.14102,0.04524 -0.254,0.06773 -0.11271,0.03387 -0.23706,0.0508 -0.37253,0.0508 -0.23707,0 -0.41751,-0.04498 -0.54187,-0.135467 -0.12409,-0.1016 -0.18626,-0.259556 -0.18626,-0.474133 V 6.671733 Z m 15.596925,0.3556 c 0,0.835555 -0.15796,1.563688 -0.47414,2.1844 -0.31617,0.620977 -0.762,1.100667 -1.33773,1.439334 -0.57573,0.338666 -1.253065,0.508 -2.031995,0.508 -0.77893,0 -1.46182,-0.169334 -2.04893,-0.508 -0.57574,-0.338667 -1.02156,-0.818357 -1.33774,-1.439334 -0.31617,-0.620712 -0.47413,-1.348845 -0.47413,-2.1844 0,-0.846666 0.15796,-1.5748 0.47413,-2.1844 0.32729,-0.620712 0.77894,-1.100666 1.35467,-1.439333 0.58711,-0.338667 1.26444,-0.508 2.032,-0.508 0.76756,0 1.439325,0.169333 2.015065,0.508 0.57573,0.338667 1.02155,0.818621 1.33773,1.439333 0.32729,0.6096 0.49107,1.337734 0.49107,2.1844 z M 98.718275,4.2164 c -0.75644,0 -1.36022,0.270933 -1.81187,0.8128 -0.44026,0.530754 -0.6604,1.264444 -0.6604,2.201333 0,0.948267 0.21458,1.687777 0.64347,2.218267 0.44027,0.530754 1.04987,0.795867 1.8288,0.795867 0.76756,0 1.366035,-0.265113 1.794925,-0.795867 0.44027,-0.541867 0.6604,-1.281112 0.6604,-2.218267 0,-0.936889 -0.22013,-1.670579 -0.6604,-2.201333 -0.42889,-0.541867 -1.027365,-0.8128 -1.794925,-0.8128 z m 8.157365,9.398 c 0.27093,-0.12409 0.50244,-0.254 0.69427,-0.389467 0.19182,-0.135466 0.33866,-0.327289 0.44026,-0.575733 0.11298,-0.237067 0.16934,-0.569913 0.16934,-0.999067 v -5.6388 h 1.35466 v 5.8928 c 0,0.654844 -0.11298,1.162844 -0.33866,1.524 -0.22569,0.372534 -0.48552,0.632354 -0.77894,0.778934 -0.29342,0.15822 -0.54742,0.237066 -0.762,0.237066 -0.28231,0 -0.47969,-0.08467 -0.59266,-0.254 -0.1016,-0.157956 -0.16378,-0.349779 -0.18627,-0.575733 z m 1.10067,-12.767733 c 0,-0.237067 0.0847,-0.434446 0.254,-0.592667 C 108.39964,0.084667 108.60839,0 108.85684,0 c 0.25955,0 0.46858,0.08467 0.62653,0.254 0.15796,0.158221 0.23707,0.3556 0.23707,0.592667 0,0.237066 -0.0791,0.440266 -0.23707,0.6096 -0.15795,0.158221 -0.36698,0.237066 -0.62653,0.237066 -0.24845,0 -0.4572,-0.07885 -0.62653,-0.237066 -0.16934,-0.169334 -0.254,-0.372534 -0.254,-0.6096 z m 0.2032,6.485466 V 3.3528 c 0.0564,-0.02249 0.14102,-0.04498 0.254,-0.06773 0.12408,-0.03387 0.254,-0.0508 0.38946,-0.0508 0.23707,0 0.41196,0.0508 0.52494,0.1524 0.12408,0.09049 0.18626,0.248443 0.18626,0.474133 v 3.6576 z m 7.79224,-0.3048 5.11387,-0.694266 c -0.0453,-0.620713 -0.25983,-1.128713 -0.64347,-1.524 -0.38391,-0.4064 -0.9144,-0.6096 -1.59173,-0.6096 -0.70009,0 -1.28138,0.254 -1.74414,0.762 -0.45164,0.496887 -0.67733,1.213643 -0.67733,2.150533 v 0.372533 c 0.0788,0.903288 0.37253,1.591734 0.88053,2.065867 0.51911,0.463021 1.22476,0.694267 2.11667,0.694267 0.47413,0 0.90302,-0.07885 1.28693,-0.237067 0.38365,-0.157956 0.68845,-0.32729 0.9144,-0.508 0.12409,0.07911 0.22014,0.175154 0.28787,0.287867 0.0788,0.1016 0.11853,0.220133 0.11853,0.3556 0,0.214577 -0.12435,0.417777 -0.37253,0.6096 -0.23707,0.18071 -0.5588,0.327554 -0.9652,0.440266 -0.39529,0.112977 -0.84111,0.169334 -1.33773,0.169334 -0.86943,0 -1.6256,-0.157957 -2.26907,-0.474134 -0.63236,-0.315912 -1.12342,-0.784489 -1.4732,-1.405466 -0.33867,-0.63209 -0.508,-1.399646 -0.508,-2.302934 0,-0.643466 0.0902,-1.213379 0.27093,-1.710266 0.19183,-0.508 0.45138,-0.93689 0.77894,-1.286934 0.33867,-0.349779 0.73924,-0.615156 1.20226,-0.795866 0.46276,-0.191823 0.9652,-0.287867 1.50707,-0.287867 0.68844,0 1.29249,0.146844 1.81187,0.440267 0.53049,0.293687 0.94244,0.705643 1.23613,1.236133 0.3048,0.519377 0.4572,1.1176 0.4572,1.794933 0,0.248444 -0.0566,0.429155 -0.16933,0.541867 -0.11298,0.1016 -0.27094,0.163777 -0.47414,0.186267 l -5.6896,0.795866 z m 12.98019,-0.118533 3.8608,-3.742267 c 0.27094,0.01138 0.47969,0.07911 0.62654,0.2032 0.15795,0.112978 0.23706,0.265377 0.23706,0.4572 0,0.158221 -0.0508,0.299244 -0.1524,0.423334 -0.0902,0.124354 -0.22569,0.259821 -0.4064,0.4064 L 129.79861,7.5692 Z m 0.9144,-0.338667 4.30107,3.8608 c -0.0225,0.248444 -0.1016,0.446088 -0.23707,0.592667 -0.12409,0.146844 -0.29342,0.220133 -0.508,0.220133 -0.16933,0 -0.32729,-0.04498 -0.47413,-0.135466 -0.13547,-0.09022 -0.27649,-0.208757 -0.42333,-0.3556 l -3.6068,-3.623734 z m -0.762,0.237067 v 4.301067 c -0.0564,0.02275 -0.14102,0.04524 -0.254,0.06773 -0.11297,0.03387 -0.23706,0.0508 -0.37253,0.0508 -0.23707,0 -0.41778,-0.04498 -0.54187,-0.135467 -0.12409,-0.1016 -0.18626,-0.259556 -0.18626,-0.474133 v -4.0132 z m -1.35466,0.4572 V 0.169333 c 0.0564,-0.02249 0.14102,-0.04498 0.254,-0.06773 0.12409,-0.03387 0.254,-0.0508 0.38946,-0.0508 0.23707,0 0.41196,0.0508 0.52494,0.1524 0.12409,0.09049 0.18626,0.242888 0.18626,0.4572 v 6.8072 z m 12.89341,-0.592667 v 2.3368 c 0,0.451644 0.12991,0.773377 0.38946,0.9652 0.25956,0.180711 0.61516,0.270934 1.0668,0.270934 0.19184,0 0.4064,-0.03387 0.64347,-0.1016 0.23707,-0.06773 0.43471,-0.146579 0.59267,-0.237067 0.0677,0.06773 0.12991,0.1524 0.18627,0.254 0.0564,0.1016 0.0847,0.220133 0.0847,0.3556 0,0.248444 -0.14683,0.451644 -0.44026,0.6096 -0.29342,0.158221 -0.69982,0.237067 -1.21921,0.237067 -0.79031,0 -1.43377,-0.17489 -1.93039,-0.524934 C 139.53107,10.487554 139.28845,9.906 139.28845,9.0932 V 6.671733 Z m -0.6604,-3.183466 h 3.43746 c 0.0339,0.04524 0.0677,0.118533 0.1016,0.220133 0.0339,0.1016 0.0508,0.209021 0.0508,0.321733 0,0.180711 -0.0452,0.321734 -0.13546,0.423334 -0.0902,0.1016 -0.21458,0.1524 -0.37254,0.1524 h -3.08186 z m -0.69427,3.691466 V 1.049867 c 0.0564,-0.02249 0.14102,-0.04498 0.254,-0.06773 0.12409,-0.03387 0.254,-0.0508 0.38947,-0.0508 0.23706,0 0.41195,0.0508 0.52493,0.1524 0.12409,0.09049 0.18627,0.242888 0.18627,0.4572 v 5.6388 z"
       fill="#000000"
       id="path2"
       style="stroke-width:0.264583" />
    <path
       d="m 22.108068,31.71825 v 1.49225 c 0,0.423334 -0.08096,0.758561 -0.243417,1.005417 -0.155046,0.247121 -0.363273,0.423333 -0.624416,0.529167 -0.26088,0.09895 -0.54319,0.148166 -0.846667,0.148166 -0.395023,0 -0.687917,-0.04577 -0.878417,-0.137583 -0.183356,-0.09869 -0.275166,-0.22569 -0.275166,-0.381 0,-0.09869 0.02117,-0.183356 0.0635,-0.254 0.04233,-0.07038 0.08123,-0.123296 0.116416,-0.15875 0.105834,0.04948 0.232834,0.09525 0.381,0.137583 0.155311,0.04233 0.310621,0.0635 0.465667,0.0635 0.3175,0 0.560917,-0.07752 0.73025,-0.232833 0.169333,-0.155046 0.254,-0.409046 0.254,-0.762 V 31.71825 Z m -0.85725,0.254 v -3.608916 c 0.03545,-0.01402 0.08837,-0.02805 0.15875,-0.04233 0.07779,-0.02117 0.15531,-0.03175 0.232833,-0.03175 0.155311,0 0.271727,0.03175 0.34925,0.09525 0.07779,0.05662 0.116417,0.155311 0.116417,0.296334 v 3.291416 z m 6.770952,2.25425 c 0.296333,0 0.53975,-0.02804 0.73025,-0.08467 0.197379,-0.0635 0.338667,-0.123296 0.423333,-0.179917 v -1.534579 l -1.312333,0.137583 c -0.366977,0.02831 -0.638704,0.109538 -0.814917,0.243417 -0.176477,0.134143 -0.264583,0.328083 -0.264583,0.582083 0,0.261144 0.102129,0.465667 0.306917,0.613833 0.211666,0.148167 0.522023,0.22225 0.931333,0.22225 z m -0.01058,-4.47675 c 0.613833,0 1.100666,0.137584 1.4605,0.41275 0.359833,0.275167 0.53975,0.709084 0.53975,1.30175 v 2.50825 c 0,0.155311 -0.03175,0.275167 -0.09525,0.359834 -0.05662,0.07779 -0.144727,0.151871 -0.264584,0.22225 -0.169333,0.09181 -0.395287,0.176477 -0.677333,0.254 -0.28231,0.07779 -0.59981,0.116416 -0.9525,0.116416 -0.66331,0 -1.178454,-0.130439 -1.545167,-0.391583 -0.359833,-0.260879 -0.53975,-0.63844 -0.53975,-1.132417 0,-0.458523 0.151607,-0.807773 0.455084,-1.04775 0.310356,-0.246856 0.737129,-0.395023 1.280583,-0.4445 l 1.502833,-0.148166 V 31.46425 c 0,-0.352689 -0.105833,-0.610129 -0.3175,-0.772583 -0.211666,-0.16219 -0.497416,-0.243417 -0.85725,-0.243417 -0.289454,0 -0.56806,0.04233 -0.836083,0.127 -0.261144,0.08467 -0.493977,0.179917 -0.6985,0.28575 -0.05662,-0.04921 -0.109538,-0.105833 -0.15875,-0.169333 -0.04233,-0.07038 -0.0635,-0.141023 -0.0635,-0.211667 0,-0.183356 0.102129,-0.324379 0.306917,-0.423333 0.1905,-0.09869 0.409045,-0.172773 0.656166,-0.22225 0.254,-0.05636 0.522023,-0.08467 0.804334,-0.08467 z m 6.826514,2.719917 H 33.991037 V 30.861 c 0,-0.162189 0.02805,-0.289189 0.08467,-0.381 0.0635,-0.09869 0.165629,-0.193939 0.306917,-0.28575 0.183356,-0.119856 0.433916,-0.22225 0.751416,-0.306916 0.3175,-0.09155 0.67019,-0.137584 1.058334,-0.137584 0.564356,0 0.846666,0.141288 0.846666,0.423334 0,0.07064 -0.01058,0.137583 -0.03175,0.201083 -0.02117,0.05662 -0.04948,0.105833 -0.08467,0.148167 -0.07064,-0.01402 -0.162454,-0.02805 -0.275167,-0.04233 -0.112977,-0.01402 -0.225954,-0.02117 -0.338667,-0.02117 -0.324643,0 -0.610393,0.03545 -0.85725,0.105833 -0.24712,0.0635 -0.451643,0.141288 -0.613833,0.232833 z m 0,-0.359833 v 2.645833 c -0.03545,0.01429 -0.08837,0.02831 -0.15875,0.04233 -0.07064,0.02117 -0.148167,0.03175 -0.232833,0.03175 -0.148167,0 -0.261144,-0.02805 -0.338667,-0.08467 -0.07779,-0.0635 -0.116417,-0.16219 -0.116417,-0.296334 v -2.465916 z m 10.065544,0.22225 c 0,0.522287 -0.09895,0.977371 -0.296334,1.36525 -0.197643,0.388143 -0.47625,0.687916 -0.836083,0.899583 -0.359833,0.211667 -0.783167,0.3175 -1.27,0.3175 -0.486833,0 -0.913871,-0.105833 -1.280583,-0.3175 -0.359834,-0.211667 -0.638704,-0.51144 -0.836084,-0.899583 -0.197643,-0.387879 -0.296333,-0.842963 -0.296333,-1.36525 0,-0.529167 0.09869,-0.98425 0.296333,-1.36525 0.204523,-0.387879 0.486834,-0.687917 0.846667,-0.899584 0.366713,-0.211666 0.790046,-0.3175 1.27,-0.3175 0.47969,0 0.899583,0.105834 1.259417,0.3175 0.359833,0.211667 0.638439,0.511705 0.836083,0.899584 0.204523,0.381 0.306917,0.836083 0.306917,1.36525 z M 42.500831,30.44825 c -0.47281,0 -0.850371,0.169334 -1.132417,0.508 -0.275166,0.331788 -0.41275,0.790311 -0.41275,1.375834 0,0.592666 0.13388,1.054893 0.402167,1.386416 0.275167,0.331788 0.656167,0.497417 1.143,0.497417 0.47969,0 0.853546,-0.165629 1.121833,-0.497417 0.275167,-0.338666 0.41275,-0.800629 0.41275,-1.386416 0,-0.585523 -0.137583,-1.044046 -0.41275,-1.375834 -0.268287,-0.338666 -0.642143,-0.508 -1.121833,-0.508 z m 9.596173,3.026834 c 0,0.451643 -0.165894,0.804333 -0.497417,1.058333 -0.331523,0.254 -0.811477,0.381 -1.439333,0.381 -0.53631,0 -0.973667,-0.08096 -1.312333,-0.243417 -0.338667,-0.169333 -0.508,-0.352689 -0.508,-0.550333 0,-0.08467 0.02117,-0.165629 0.0635,-0.243417 0.04948,-0.08467 0.119856,-0.151606 0.211666,-0.201083 0.1905,0.134144 0.41275,0.257704 0.66675,0.370417 0.254,0.112977 0.54319,0.169333 0.867834,0.169333 0.733689,0 1.100666,-0.246856 1.100666,-0.740833 0,-0.204523 -0.0635,-0.370417 -0.1905,-0.497417 -0.119856,-0.133879 -0.299773,-0.229129 -0.53975,-0.28575 L 49.641671,32.459084 C 49.211194,32.35325 48.897398,32.191061 48.699754,31.97225 48.50211,31.746561 48.403421,31.467955 48.403421,31.136167 c 0,-0.373856 0.151606,-0.6985 0.455083,-0.973667 0.303477,-0.275166 0.76544,-0.41275 1.386417,-0.41275 0.331523,0 0.620977,0.03545 0.867833,0.105834 0.246856,0.0635 0.437356,0.151871 0.5715,0.264583 0.141023,0.105833 0.211667,0.22225 0.211667,0.34925 0,0.09181 -0.02461,0.173038 -0.07408,0.243417 -0.04233,0.07064 -0.102394,0.12356 -0.179916,0.15875 -0.08467,-0.05636 -0.19394,-0.116417 -0.328084,-0.179917 -0.127,-0.07038 -0.278606,-0.127 -0.455083,-0.169333 -0.176477,-0.04921 -0.370417,-0.07408 -0.582083,-0.07408 -0.310357,0 -0.560917,0.06006 -0.751417,0.179917 -0.1905,0.120121 -0.28575,0.289454 -0.28575,0.508 0,0.15531 0.05292,0.292894 0.15875,0.41275 0.112977,0.112977 0.28919,0.197644 0.529167,0.254 l 0.73025,0.179917 c 0.479689,0.112977 0.839522,0.292893 1.0795,0.53975 0.239977,0.239977 0.359833,0.557477 0.359833,0.9525 z m 3.315494,-1.227667 c -0.0635,-0.04233 -0.127,-0.102129 -0.1905,-0.179917 -0.0635,-0.08467 -0.09525,-0.179916 -0.09525,-0.28575 0,-0.148166 0.07408,-0.246856 0.22225,-0.296333 l 2.7305,-1.11125 c 0.0635,0.04233 0.123295,0.105833 0.179916,0.1905 0.0635,0.07779 0.09525,0.169333 0.09525,0.275167 0,0.07064 -0.01773,0.130704 -0.05292,0.179916 -0.03545,0.04948 -0.08837,0.08837 -0.15875,0.116417 z m 1.74625,-0.137583 v 2.645833 c -0.03545,0.01429 -0.08837,0.02831 -0.15875,0.04233 -0.07064,0.02117 -0.148167,0.03175 -0.232834,0.03175 -0.148166,0 -0.261143,-0.02805 -0.338666,-0.08467 -0.07779,-0.0635 -0.116417,-0.16219 -0.116417,-0.296334 v -2.465916 z m -0.846667,0.28575 v -4.47675 c 0.03519,-0.01402 0.08811,-0.02805 0.15875,-0.04233 0.07752,-0.02117 0.155046,-0.03175 0.232833,-0.03175 0.155046,0 0.268023,0.03175 0.338667,0.09525 0.07752,0.05662 0.116417,0.151871 0.116417,0.28575 v 4.28625 z M 63.43651,34.2265 c 0.29634,0 0.53975,-0.02804 0.73025,-0.08467 0.19765,-0.0635 0.33867,-0.123296 0.42334,-0.179917 V 32.42733 l -1.31234,0.137583 c -0.36671,0.02831 -0.63844,0.109538 -0.81491,0.243417 -0.17622,0.134143 -0.26459,0.328083 -0.26459,0.582083 0,0.261144 0.1024,0.465667 0.30692,0.613833 0.21167,0.148167 0.52229,0.22225 0.93133,0.22225 z m -0.0106,-4.47675 c 0.61383,0 1.10067,0.137584 1.4605,0.41275 0.35983,0.275167 0.53975,0.709084 0.53975,1.30175 v 2.50825 c 0,0.155311 -0.0318,0.275167 -0.0953,0.359834 -0.0564,0.07779 -0.14446,0.151871 -0.26458,0.22225 -0.16934,0.09181 -0.39503,0.176477 -0.67734,0.254 -0.28204,0.07779 -0.59954,0.116416 -0.9525,0.116416 -0.66304,0 -1.17819,-0.130439 -1.54516,-0.391583 -0.35984,-0.260879 -0.53975,-0.63844 -0.53975,-1.132417 0,-0.458523 0.15187,-0.807773 0.45508,-1.04775 0.31062,-0.246856 0.73739,-0.395023 1.28058,-0.4445 l 1.50284,-0.148166 V 31.46425 c 0,-0.352689 -0.10584,-0.610129 -0.3175,-0.772583 -0.21167,-0.16219 -0.49742,-0.243417 -0.85725,-0.243417 -0.28919,0 -0.5678,0.04233 -0.83609,0.127 -0.26088,0.08467 -0.49371,0.179917 -0.6985,0.28575 -0.0563,-0.04921 -0.10927,-0.105833 -0.15875,-0.169333 -0.0423,-0.07038 -0.0635,-0.141023 -0.0635,-0.211667 0,-0.183356 0.1024,-0.324379 0.30692,-0.423333 0.1905,-0.09869 0.40931,-0.172773 0.65617,-0.22225 0.254,-0.05636 0.52228,-0.08467 0.80433,-0.08467 z m 8.98737,1.386417 c -0.127,0.4445 -0.26459,0.889 -0.41275,1.3335 -0.14103,0.4445 -0.27861,0.860954 -0.41275,1.248833 -0.13415,0.388144 -0.25744,0.723371 -0.37042,1.005417 -0.0564,0.03545 -0.11986,0.0635 -0.1905,0.08467 -0.0706,0.02117 -0.16589,0.03175 -0.28575,0.03175 -0.11298,0 -0.21881,-0.02117 -0.3175,-0.0635 -0.0918,-0.03519 -0.15531,-0.09525 -0.1905,-0.179917 -0.0706,-0.141023 -0.15161,-0.345546 -0.24342,-0.613833 -0.0847,-0.268023 -0.17647,-0.57494 -0.27516,-0.92075 -0.0918,-0.345546 -0.18706,-0.70194 -0.28575,-1.068917 -0.0987,-0.373856 -0.1905,-0.73369 -0.27517,-1.0795 -0.0775,-0.345546 -0.14473,-0.652462 -0.20108,-0.92075 0.0495,-0.04921 0.10927,-0.09525 0.17991,-0.137583 0.0775,-0.04233 0.16934,-0.0635 0.27517,-0.0635 0.13414,0 0.23283,0.03889 0.29633,0.116416 0.0707,0.07064 0.11986,0.187061 0.14817,0.34925 0.0635,0.296334 0.13414,0.631561 0.21167,1.005417 0.0847,0.374121 0.16933,0.744538 0.254,1.11125 0.0918,0.366977 0.17277,0.6985 0.24341,0.994833 0.0775,0.289455 0.13415,0.504561 0.16934,0.645584 h 0.0423 c 0.0564,-0.169334 0.14473,-0.4445 0.26458,-0.8255 0.11986,-0.387879 0.26115,-0.82894 0.42334,-1.322917 0.16933,-0.493712 0.33866,-0.994833 0.508,-1.502833 0.0563,-0.03519 0.12356,-0.0598 0.20108,-0.07408 0.0775,-0.02117 0.16219,-0.03175 0.254,-0.03175 0.127,0 0.23283,0.02487 0.3175,0.07408 0.0847,0.04233 0.14102,0.109537 0.16933,0.201083 0.16934,0.486833 0.32809,0.966788 0.47625,1.439333 0.14817,0.465667 0.27861,0.882121 0.39159,1.248834 0.11297,0.359833 0.19394,0.628121 0.24341,0.804333 h 0.0529 c 0.16219,-0.627856 0.33867,-1.30175 0.52917,-2.021417 0.1905,-0.719666 0.34581,-1.425045 0.46566,-2.116666 0.0987,-0.0635 0.21881,-0.09525 0.35984,-0.09525 0.11985,0 0.2151,0.02831 0.28575,0.08467 0.0706,0.05662 0.10583,0.144728 0.10583,0.264584 0,0.07779 -0.0246,0.225954 -0.0741,0.4445 -0.0423,0.21881 -0.1024,0.47625 -0.17992,0.772583 -0.0775,0.296333 -0.16589,0.613833 -0.26458,0.9525 -0.0918,0.331788 -0.18706,0.656167 -0.28575,0.973667 -0.0987,0.310621 -0.19394,0.592666 -0.28575,0.846666 -0.0847,0.254 -0.15875,0.451644 -0.22225,0.592667 -0.0352,0.02831 -0.0952,0.05292 -0.17992,0.07408 -0.0775,0.02831 -0.16933,0.04233 -0.27517,0.04233 -0.28919,0 -0.45852,-0.06694 -0.508,-0.201084 -0.0987,-0.254 -0.21166,-0.567795 -0.33866,-0.941916 -0.127,-0.381 -0.25744,-0.790046 -0.39159,-1.227667 -0.13414,-0.4445 -0.26802,-0.889 -0.40216,-1.3335 z m 15.26857,0.645583 h -2.91042 v -0.6985 h 2.91042 z m -0.87842,-0.529166 c 0.47996,0 0.87842,0.08123 1.19592,0.243416 0.3175,0.155311 0.55404,0.363538 0.70908,0.624417 0.16246,0.261144 0.24342,0.554038 0.24342,0.878417 0,0.642143 -0.23283,1.118393 -0.6985,1.42875 -0.45852,0.310621 -1.11469,0.465666 -1.9685,0.465666 -0.1905,0 -0.381,-0.0069 -0.5715,-0.02117 -0.1905,-0.0069 -0.37729,-0.02461 -0.56092,-0.05292 -0.18335,-0.02805 -0.35983,-0.0635 -0.52916,-0.105833 -0.29634,-0.08467 -0.4445,-0.246857 -0.4445,-0.486834 v -5.418666 c 0,-0.112713 0.0283,-0.201084 0.0847,-0.264584 0.0635,-0.0635 0.15188,-0.109272 0.26459,-0.137583 0.23998,-0.07038 0.49398,-0.116417 0.762,-0.137583 0.27516,-0.02805 0.56806,-0.04233 0.87841,-0.04233 0.79746,0 1.41817,0.144728 1.86267,0.433917 0.4445,0.282311 0.66675,0.716227 0.66675,1.30175 0,0.296333 -0.0741,0.5715 -0.22225,0.8255 -0.14102,0.247121 -0.37385,0.448204 -0.6985,0.60325 -0.3175,0.148167 -0.74427,0.22225 -1.28058,0.22225 l -0.0952,-0.529167 c 0.46566,0 0.81862,-0.09525 1.05833,-0.28575 0.23998,-0.197379 0.35983,-0.469106 0.35983,-0.814916 0,-0.35269 -0.14102,-0.613834 -0.42333,-0.783167 -0.27517,-0.176212 -0.68421,-0.264583 -1.22767,-0.264583 -0.23971,0 -0.45137,0.01058 -0.635,0.03175 -0.18335,0.01429 -0.35268,0.03545 -0.508,0.0635 v 5.037666 c 0.16934,0.03545 0.36354,0.0635 0.58209,0.08467 0.22595,0.02117 0.45164,0.03175 0.67733,0.03175 0.58579,0 1.03029,-0.09869 1.3335,-0.296333 0.30348,-0.197379 0.45508,-0.500857 0.45508,-0.910167 0,-0.366712 -0.13758,-0.656167 -0.41275,-0.867833 -0.26802,-0.218546 -0.66675,-0.328084 -1.19591,-0.328084 z m 5.92297,-2.910417 c 0,-0.148167 0.0529,-0.271462 0.15875,-0.370417 0.10583,-0.105833 0.23627,-0.15875 0.39158,-0.15875 0.16219,0 0.29263,0.05292 0.39158,0.15875 0.0987,0.09895 0.14817,0.22225 0.14817,0.370417 0,0.148167 -0.0495,0.275167 -0.14817,0.381 -0.0989,0.09895 -0.22939,0.148167 -0.39158,0.148167 -0.15531,0 -0.28575,-0.04921 -0.39158,-0.148167 -0.10584,-0.105833 -0.15875,-0.232833 -0.15875,-0.381 z m 0.97366,3.640667 v 2.772833 c -0.0354,0.01429 -0.0884,0.02831 -0.15875,0.04233 -0.0706,0.02117 -0.14816,0.03175 -0.23283,0.03175 -0.14817,0 -0.26114,-0.02805 -0.33867,-0.08467 -0.0778,-0.0635 -0.11641,-0.16219 -0.11641,-0.296334 v -2.465916 z m -0.84666,0.41275 V 29.9085 c 0.0352,-0.01402 0.0881,-0.02805 0.15875,-0.04233 0.0775,-0.02117 0.15875,-0.03175 0.24341,-0.03175 0.14817,0 0.25744,0.03175 0.32809,0.09525 0.0775,0.05662 0.11641,0.155311 0.11641,0.296333 v 2.169584 z m 5.19853,-0.1905 3.19617,-0.433917 c -0.0283,-0.387879 -0.16219,-0.705379 -0.40217,-0.9525 -0.23998,-0.254 -0.5715,-0.381 -0.99483,-0.381 -0.43736,0 -0.8009,0.15875 -1.09009,0.47625 -0.28231,0.310621 -0.42333,0.75856 -0.42333,1.344083 v 0.232834 c 0.0495,0.564621 0.23283,0.994833 0.55033,1.291166 0.32465,0.289455 0.76544,0.433917 1.32292,0.433917 0.29633,0 0.56436,-0.04921 0.80433,-0.148167 0.23998,-0.09869 0.43048,-0.204523 0.5715,-0.3175 0.0775,0.04948 0.13759,0.109538 0.17992,0.179917 0.0495,0.0635 0.0741,0.137583 0.0741,0.22225 0,0.134144 -0.0775,0.261144 -0.23283,0.381 -0.14817,0.112977 -0.34925,0.204788 -0.60325,0.275167 -0.24686,0.07064 -0.52573,0.105833 -0.83608,0.105833 -0.54319,0 -1.016,-0.09869 -1.41817,-0.296333 -0.39502,-0.197379 -0.70194,-0.490273 -0.92075,-0.878417 -0.21167,-0.395023 -0.3175,-0.874712 -0.3175,-1.439333 0,-0.402167 0.0564,-0.758296 0.16933,-1.068917 0.11986,-0.3175 0.28231,-0.585523 0.48684,-0.804333 0.21166,-0.218546 0.46222,-0.38444 0.75141,-0.497417 0.28919,-0.119856 0.60325,-0.179917 0.94192,-0.179917 0.43048,0 0.80777,0.09181 1.13242,0.275167 0.33152,0.183621 0.58922,0.44106 0.77258,0.772583 0.1905,0.324644 0.28575,0.6985 0.28575,1.121834 0,0.15531 -0.0352,0.268287 -0.10583,0.338666 -0.0707,0.0635 -0.16934,0.102394 -0.29634,0.116417 l -3.556,0.497417 z m 11.16991,1.27 c 0,0.451643 -0.16589,0.804333 -0.49741,1.058333 -0.33179,0.254 -0.81148,0.381 -1.43934,0.381 -0.53631,0 -0.97366,-0.08096 -1.31233,-0.243417 -0.33867,-0.169333 -0.508,-0.352689 -0.508,-0.550333 0,-0.08467 0.0212,-0.165629 0.0635,-0.243417 0.0492,-0.08467 0.11986,-0.151606 0.21167,-0.201083 0.1905,0.134144 0.41275,0.257704 0.66675,0.370417 0.254,0.112977 0.54319,0.169333 0.86783,0.169333 0.73369,0 1.10067,-0.246856 1.10067,-0.740833 0,-0.204523 -0.0635,-0.370417 -0.1905,-0.497417 -0.12012,-0.133879 -0.30004,-0.229129 -0.53975,-0.28575 l -0.87842,-0.232833 c -0.43048,-0.105834 -0.74454,-0.268023 -0.94192,-0.486834 -0.19764,-0.225689 -0.29633,-0.504295 -0.29633,-0.836083 0,-0.373856 0.15161,-0.6985 0.45508,-0.973667 0.30322,-0.275166 0.76544,-0.41275 1.38642,-0.41275 0.33152,0 0.62071,0.03545 0.86783,0.105834 0.24686,0.0635 0.43736,0.151871 0.5715,0.264583 0.14103,0.105833 0.21167,0.22225 0.21167,0.34925 0,0.09181 -0.0249,0.173038 -0.0741,0.243417 -0.0423,0.07064 -0.1024,0.12356 -0.17992,0.15875 -0.0847,-0.05636 -0.1942,-0.116417 -0.32808,-0.179917 -0.127,-0.07038 -0.27887,-0.127 -0.45509,-0.169333 -0.17647,-0.04921 -0.37041,-0.07408 -0.58208,-0.07408 -0.31062,0 -0.56092,0.06006 -0.75142,0.179917 -0.1905,0.120121 -0.28575,0.289454 -0.28575,0.508 0,0.15531 0.0529,0.292894 0.15875,0.41275 0.11272,0.112977 0.28919,0.197644 0.52917,0.254 l 0.73025,0.179917 c 0.47969,0.112977 0.83952,0.292893 1.0795,0.53975 0.23971,0.239977 0.35983,0.557477 0.35983,0.9525 z m 3.63141,1.30175 c -0.0495,-0.04233 -0.0918,-0.09525 -0.127,-0.15875 -0.0283,-0.07038 -0.0423,-0.141023 -0.0423,-0.211667 0,-0.08467 0.0175,-0.16219 0.0529,-0.232833 0.0423,-0.07752 0.0881,-0.151607 0.13759,-0.22225 l 3.24908,-4.064 h 0.32808 c 0.0564,0.04948 0.0987,0.105833 0.127,0.169333 0.0352,0.0635 0.0529,0.134144 0.0529,0.211667 0,0.07779 -0.0177,0.151871 -0.0529,0.22225 -0.0355,0.07064 -0.0847,0.144727 -0.14816,0.22225 l -3.2385,4.064 z m 3.48192,-4.191 h -3.4925 c -0.0212,-0.03519 -0.0423,-0.08467 -0.0635,-0.148167 -0.0212,-0.0635 -0.0317,-0.13044 -0.0317,-0.201083 0,-0.119857 0.028,-0.207963 0.0847,-0.264584 0.0564,-0.05636 0.13388,-0.08467 0.23284,-0.08467 h 3.27025 z m -3.41842,3.503083 h 3.69358 c 0.0212,0.02831 0.0423,0.07408 0.0635,0.137583 0.0212,0.05662 0.0317,0.123561 0.0317,0.201084 0,0.112977 -0.0283,0.201083 -0.0847,0.264583 -0.0566,0.05662 -0.13759,0.08467 -0.24342,0.08467 h -3.46075 z m 8.25237,-1.957917 2.41298,-2.338916 c 0.16934,0.0071 0.29978,0.04948 0.39159,0.127 0.0987,0.07064 0.14816,0.165894 0.14816,0.28575 0,0.09895 -0.0317,0.18706 -0.0952,0.264583 -0.0566,0.07779 -0.14128,0.162454 -0.254,0.254 l -2.07433,1.820333 z m 0.57148,-0.211666 2.68817,2.413 c -0.0143,0.15531 -0.0635,0.278871 -0.14817,0.370416 -0.0778,0.09181 -0.18362,0.137584 -0.3175,0.137584 -0.10583,0 -0.20478,-0.02805 -0.29634,-0.08467 -0.0847,-0.05636 -0.17303,-0.13044 -0.26457,-0.22225 l -2.25426,-2.264833 z m -0.47625,0.148166 v 2.688167 c -0.0355,0.01429 -0.0884,0.02831 -0.15875,0.04233 -0.0707,0.02117 -0.14815,0.03175 -0.23283,0.03175 -0.14817,0 -0.26114,-0.02805 -0.33866,-0.08467 -0.0778,-0.0635 -0.11642,-0.16219 -0.11642,-0.296334 v -2.50825 z m -0.84665,0.28575 v -4.434416 c 0.0352,-0.01402 0.0881,-0.02805 0.15875,-0.04233 0.0775,-0.02117 0.15875,-0.03175 0.2434,-0.03175 0.14817,0 0.25743,0.03175 0.32808,0.09525 0.0775,0.05662 0.11642,0.151871 0.11642,0.28575 v 4.2545 z"
       fill="#000000"
       id="path3"
       style="stroke-width:0.264583" />
  </g>
</svg>
